<?xml version="1.0" encoding="UTF-8"?><svg id="Layer_1" xmlns="http://www.w3.org/2000/svg" viewBox="0 0 313.196 142.665"><defs><style>.cls-1{fill:#045d74;}.cls-1,.cls-2,.cls-3{stroke-width:0px;}.cls-2{fill:#fff;}.cls-3{fill:#231f20;}</style></defs><rect class="cls-1" y="65.544" width="313.196" height="77.122"/><path class="cls-3" d="M37.301,5.002v49.938h-11.338V5.002h11.338Z"/><path class="cls-3" d="M57.975,25.26v29.679h-11.421V10.087c0-1.5.361-2.722,1.083-3.668.722-.944,2.028-1.417,3.918-1.417h2.084c1.445,0,2.529.25,3.251.75.722.5,1.305,1.223,1.751,2.167l13.172,26.844V5.002h11.338v44.852c0,1.5-.362,2.724-1.083,3.668-.723.946-2.03,1.417-3.918,1.417h-2.084c-1.446,0-2.53-.25-3.251-.75-.723-.5-1.307-1.222-1.75-2.167l-13.089-26.761Z"/><path class="cls-3" d="M103.66,35.181c-7.449,0-11.171-3.806-11.171-11.421v-7.336c0-7.614,3.723-11.421,11.171-11.421h25.26v10.421h-22.259c-1.056,0-1.779.223-2.167.667-.39.446-.583,1.057-.583,1.834v4.585c0,.779.194,1.39.583,1.834.388.446,1.111.667,2.167.667h11.088c7.447,0,11.171,3.808,11.171,11.421v7.086c0,7.615-3.724,11.421-11.171,11.421h-25.26v-10.421h22.259c1.055,0,1.778-.222,2.167-.667.388-.444.583-1.055.583-1.834v-4.335c0-.777-.195-1.389-.583-1.834-.39-.444-1.112-.667-2.167-.667h-11.088Z"/><path class="cls-3" d="M149.762,54.939h-11.421V16.423c0-7.614,3.723-11.421,11.171-11.421h14.089c7.446,0,11.171,3.808,11.171,11.421v12.088c0,7.615-3.725,11.421-11.171,11.421h-13.839v15.006ZM152.513,15.423c-1.057,0-1.779.223-2.167.667-.39.446-.583,1.057-.583,1.834v11.838h10.837c1.055,0,1.778-.221,2.168-.667.388-.444.583-1.055.583-1.834v-9.337c0-.778-.195-1.389-.583-1.834-.39-.444-1.113-.667-2.168-.667h-8.086Z"/><path class="cls-3" d="M195.781,5.002v49.938h-11.338V5.002h11.338Z"/><path class="cls-3" d="M217.372,54.939h-11.422V16.423c0-7.614,3.724-11.421,11.172-11.421h14.089c7.447,0,11.172,3.808,11.172,11.421v12.088c0,6.948-3.141,10.727-9.421,11.338l12.589,15.09h-14.256l-12.006-15.006h-1.917v15.006ZM220.123,15.423c-1.057,0-1.779.223-2.167.667-.39.446-.584,1.057-.584,1.834v11.838h10.838c1.055,0,1.778-.221,2.167-.667.389-.444.584-1.055.584-1.834v-9.337c0-.778-.195-1.389-.584-1.834-.389-.444-1.112-.667-2.167-.667h-8.087Z"/><path class="cls-3" d="M251.803,5.002h36.515v10.421h-25.094v9.587h25.094v10.171h-25.094v6.836c0,.779.194,1.39.584,1.834.388.445,1.111.667,2.167.667h22.343v10.421h-25.344c-7.448,0-11.171-3.806-11.171-11.421V5.002Z"/><path class="cls-2" d="M26.964,110.224c-7.449,0-11.171-3.806-11.171-11.421v-7.336c0-7.614,3.723-11.421,11.171-11.421h25.261v10.421h-22.26c-1.056,0-1.779.223-2.167.667-.39.446-.583,1.057-.583,1.834v4.585c0,.779.194,1.39.583,1.834.388.446,1.111.667,2.167.667h11.088c7.447,0,11.172,3.808,11.172,11.421v7.086c0,7.615-3.725,11.421-11.172,11.421H15.793v-10.421h22.259c1.055,0,1.778-.222,2.167-.667.389-.444.584-1.055.584-1.834v-4.335c0-.777-.195-1.389-.584-1.834-.389-.444-1.112-.667-2.167-.667h-11.088Z"/><path class="cls-2" d="M72.233,90.549h-11.839v-10.504h34.848v10.504h-11.755v39.433h-11.254v-39.433Z"/><path class="cls-2" d="M114.749,129.982h-11.422v-38.516c0-7.614,3.724-11.421,11.172-11.421h14.089c7.447,0,11.172,3.808,11.172,11.421v12.088c0,6.948-3.141,10.727-9.421,11.338l12.589,15.09h-14.256l-12.006-15.006h-1.917v15.006ZM117.5,90.466c-1.057,0-1.779.223-2.167.667-.39.446-.584,1.057-.584,1.834v11.838h10.838c1.055,0,1.778-.221,2.167-.667.389-.444.584-1.055.584-1.834v-9.337c0-.778-.195-1.389-.584-1.834-.389-.444-1.112-.667-2.167-.667h-8.087Z"/><path class="cls-2" d="M255.639,80.045l-16.924,24.51,18.008,25.427h-13.173l-14.589-20.759v20.759h-11.422v-49.938h11.422v19.925l13.923-19.925h12.755Z"/><path class="cls-2" d="M261.724,80.045h36.515v10.421h-25.094v9.587h25.094v10.171h-25.094v6.836c0,.779.194,1.39.584,1.834.388.445,1.111.667,2.167.667h22.343v10.421h-25.344c-7.448,0-11.171-3.806-11.171-11.421v-38.516Z"/><path class="cls-2" d="M152.773,104.803c1.312,1.17,2.623,2.275,3.937,3.317,1.734-2.633,3.622-5.047,5.675-7.228-.388-.73-.607-1.564-.607-2.447,0-.436.053-.86.154-1.266-2.145-1.39-4.352-2.939-6.651-4.666-1.7,3.505-2.651,7.437-2.651,11.592h.006s-.006.001-.006.001c0,.282.006.563.014.842l.129-.145h0ZM156.551,90.194c2.301,1.735,4.502,3.291,6.638,4.682.952-1.016,2.308-1.651,3.809-1.651,1.191,0,2.288.4,3.167,1.072.629-.417,1.27-.819,1.923-1.202,2.718-1.598,5.635-2.902,8.768-3.894-.023-.208-.033-.418-.033-.63,0-.797.16-1.557.45-2.248-3.182-2.696-6.95-5.083-11.287-7.193-3.619,1.348-6.866,3.459-9.546,6.14-1.48,1.479-2.787,3.132-3.889,4.925h0ZM173.637,78.06c3.43,1.846,6.49,3.881,9.168,6.128.895-.785,2.034-1.301,3.286-1.42.281-1.376.546-2.775.798-4.2-2.414-.72-4.969-1.108-7.615-1.108v.006h-.002v-.006c-1.934,0-3.818.209-5.635.601h0ZM189.389,79.454c-.221,1.238-.453,2.457-.696,3.657,1.746.655,3.095,2.124,3.584,3.945,2.364-.174,4.823-.208,7.384-.095-.493-.585-1.01-1.151-1.551-1.693-2.476-2.474-5.433-4.463-8.721-5.814h0ZM201.688,89.705c-3.272-.245-6.375-.251-9.316-.03-.241,1.258-.888,2.373-1.797,3.202.773,1.192,1.474,2.427,2.101,3.708.912,1.867,1.664,3.829,2.257,5.884.18-.019.364-.029.551-.029,2.343,0,4.325,1.543,4.985,3.671,1.727.06,3.512.092,5.366.104.055-.697.084-1.399.084-2.108h-.006v-.002h.006c-.001-5.303-1.554-10.245-4.23-14.398h0ZM205.5,108.822c-1.688-.012-3.321-.041-4.907-.094-.423,2.034-2.032,3.634-4.07,4.047.09,2.437.006,4.985-.258,7.645,1.495-.158,3.011-.375,4.553-.648,2.325-3.19,3.959-6.913,4.682-10.95h0ZM202.322,122.127l.006.027-.031.006c-.724.924-1.503,1.804-2.334,2.634-5.291,5.291-12.606,8.564-20.687,8.565v.006h-.002v-.006c-8.081,0-15.396-3.274-20.689-8.566-5.291-5.292-8.565-12.607-8.566-20.688h-.005s.005-.001.005-.001c0-8.082,3.275-15.397,8.567-20.689,5.292-5.292,12.605-8.565,20.687-8.565v-.005h.002v.005c8.082,0,15.397,3.274,20.688,8.567,5.292,5.291,8.565,12.605,8.565,20.687h.006v.002h-.006c0,6.8-2.318,13.056-6.206,18.022h0ZM198.228,122.818c-.766.102-1.525.19-2.279.263-.094.674-.2,1.354-.314,2.043.87-.677,1.697-1.406,2.476-2.185l.118-.121h0ZM192.599,127.175c.267-1.326.493-2.625.681-3.896-4.772.248-9.333-.096-13.747-1.028-.863,1.023-2.153,1.676-3.596,1.676-.107,0-.213-.004-.317-.01-.833,2.125-1.639,4.191-2.378,6.144,1.938.449,3.959.688,6.032.688v-.006h.002v.006c4.852,0,9.403-1.302,13.324-3.574h0ZM170.722,129.343c.809-2.151,1.617-4.227,2.437-6.324-1.033-.757-1.746-1.926-1.896-3.267-4.734-1.876-9.324-4.479-13.862-7.812-.728,1.226-1.424,2.496-2.092,3.812,1.304,2.676,3.047,5.104,5.13,7.187,2.862,2.861,6.369,5.075,10.284,6.403h0ZM154.017,112.604c.42-.767.851-1.518,1.293-2.255-.776-.611-1.552-1.244-2.326-1.897.235,1.424.582,2.814,1.034,4.152h0ZM171.783,96.357c.28.639.435,1.344.435,2.086,0,.499-.071.982-.202,1.44,2.867,1.372,5.686,2.46,8.542,3.32,1.038-3.108,2.036-6.336,2.965-9.713-.73-.465-1.349-1.087-1.81-1.819-2.974.935-5.737,2.165-8.305,3.675-.55.323-1.093.661-1.625,1.011h0ZM170.678,102.145c-.943.94-2.244,1.52-3.68,1.52-1.049,0-2.026-.31-2.845-.842-1.938,2.076-3.722,4.377-5.365,6.888,4.255,3.145,8.541,5.615,12.94,7.413.772-1.541,2.367-2.6,4.209-2.6.177,0,.351.01.524.03,1.094-2.858,2.19-5.805,3.254-8.872-3.026-.914-6.006-2.074-9.036-3.537h0ZM188.288,94.166c-.52.151-1.069.232-1.638.232-.22,0-.438-.011-.652-.036-.916,3.316-1.894,6.486-2.913,9.539,2.5.632,5.051,1.105,7.713,1.453.387-.785.965-1.458,1.675-1.959-.56-1.985-1.278-3.872-2.153-5.663-.603-1.233-1.281-2.42-2.033-3.567h0ZM193.898,112.633c-2.027-.645-3.518-2.496-3.628-4.71-2.766-.368-5.423-.867-8.029-1.535-1.1,3.173-2.233,6.22-3.363,9.171,1.072.862,1.759,2.185,1.759,3.667,0,.195-.013.387-.036.577,4.17.829,8.487,1.109,13.012.837.298-2.804.391-5.471.284-8.007h0Z"/></svg>